<?xml version="1.0" standalone="no"?>
<!DOCTYPE svg PUBLIC "-//W3C//DTD SVG 20010904//EN"
 "http://www.w3.org/TR/2001/REC-SVG-20010904/DTD/svg10.dtd">
<svg version="1.0" xmlns="http://www.w3.org/2000/svg"
 width="298.000000pt" height="297.000000pt" viewBox="0 0 298.000000 297.000000"
 preserveAspectRatio="xMidYMid meet">
<metadata>
Created by potrace 1.13, written by Peter Selinger 2001-2015
</metadata>
<g transform="translate(0.000000,297.000000) scale(0.100000,-0.100000)"
fill="#000000" stroke="none">
<path d="M1080 2955 c-9 -11 -9 -22 1 -52 8 -21 14 -41 14 -45 0 -4 -27 -24
-60 -46 -51 -32 -67 -50 -97 -108 -24 -45 -48 -75 -67 -86 -17 -9 -31 -24 -31
-33 0 -22 56 -53 124 -67 l59 -13 -5 -86 c-7 -108 -33 -170 -82 -193 -19 -9
-43 -16 -54 -16 -11 0 -25 -6 -31 -14 -17 -21 38 -62 107 -81 88 -25 97 -30
118 -72 16 -31 19 -62 20 -173 l1 -135 35 1 c48 1 118 37 167 85 68 65 59 44
-12 -30 -76 -78 -94 -114 -76 -147 10 -19 5 -30 -44 -95 -30 -41 -122 -140
-204 -221 -130 -129 -158 -152 -223 -182 -127 -58 -241 -71 -351 -40 -92 26
-169 107 -169 178 0 55 101 96 237 96 165 0 355 37 439 85 54 32 121 106 146
163 80 179 -30 417 -237 513 -33 15 -107 40 -165 54 -287 72 -408 132 -466
231 -38 65 -46 181 -16 241 41 79 125 133 207 133 119 0 166 -97 76 -157 -43
-29 -101 -31 -125 -4 -28 31 -17 55 32 65 58 13 54 40 -7 44 -82 6 -131 -31
-131 -99 0 -71 72 -122 189 -135 l64 -7 -45 -23 c-91 -46 -114 -116 -58 -172
29 -30 125 -70 137 -58 4 3 -6 19 -20 34 -31 32 -35 72 -9 95 15 14 187 97
200 97 3 0 -8 -15 -25 -32 -70 -74 -83 -155 -35 -209 24 -27 37 -33 85 -37 68
-5 101 2 127 28 24 24 27 70 4 70 -9 0 -29 -9 -45 -21 -38 -27 -94 -23 -94 6
0 14 16 29 54 49 49 26 56 28 93 17 22 -7 53 -9 68 -6 43 10 80 58 80 106 0
21 -3 39 -8 39 -4 0 -24 -11 -44 -25 -76 -51 -105 -23 -118 113 -10 108 -31
153 -100 215 -143 128 -437 142 -593 27 -86 -63 -123 -149 -114 -267 11 -144
85 -248 233 -325 81 -42 156 -67 319 -106 121 -30 218 -71 265 -112 20 -18 21
-20 5 -14 -11 4 -78 10 -150 14 l-130 6 -95 49 c-94 49 -96 49 -207 53 -76 3
-113 1 -113 -6 0 -16 13 -22 116 -53 52 -15 113 -41 136 -57 66 -44 116 -60
246 -77 142 -18 209 -37 241 -66 29 -27 21 -35 -16 -16 -19 10 -74 16 -178 19
-172 5 -183 9 -287 92 -54 44 -79 57 -125 65 -32 6 -82 17 -110 25 -56 14 -63
13 -63 -15 0 -23 42 -52 109 -74 40 -13 74 -36 128 -87 41 -37 92 -77 113 -88
46 -24 142 -40 235 -40 126 0 181 -31 191 -106 l5 -39 -18 34 c-10 19 -31 44
-46 55 -26 19 -39 21 -198 18 -193 -3 -217 3 -259 65 -45 67 -84 106 -125 124
-63 29 -160 22 -140 -10 4 -7 31 -23 60 -36 49 -21 57 -29 89 -93 62 -122 107
-142 324 -142 99 0 132 -3 150 -16 27 -18 28 -36 5 -56 -33 -28 -92 -40 -225
-43 -103 -2 -145 -7 -185 -23 -29 -11 -54 -17 -57 -14 -4 3 -6 19 -6 36 0 17
-8 43 -18 57 -33 50 -160 179 -176 179 -41 0 0 -135 58 -189 32 -30 33 -59 5
-137 -40 -115 -12 -249 65 -310 l34 -27 -20 -38 c-15 -30 -17 -42 -8 -58 13
-26 17 -26 55 -1 29 19 87 26 119 14 22 -9 20 -40 -5 -76 -12 -16 -18 -32 -15
-36 10 -10 114 15 164 39 43 22 45 22 58 4 20 -26 17 -45 -8 -72 l-21 -23 37
0 c30 0 44 7 69 35 76 84 106 108 176 141 59 28 72 31 66 17 -4 -10 -11 -40
-16 -67 -19 -111 -169 -219 -260 -187 -46 16 -111 14 -137 -5 -14 -9 -24 -30
-28 -56 -5 -26 -20 -56 -46 -86 -43 -49 -65 -88 -55 -98 3 -4 20 -1 38 5 18 6
34 9 36 7 9 -9 -18 -92 -34 -104 -17 -13 -17 -14 1 -28 11 -8 33 -14 48 -14
41 0 57 -37 32 -75 -17 -27 -17 -28 1 -41 10 -8 26 -14 35 -14 8 0 24 -16 34
-35 23 -42 61 -69 88 -62 14 4 22 -1 28 -19 12 -31 37 -31 80 1 33 24 55 26
32 3 -7 -7 -12 -17 -12 -24 0 -15 81 -94 97 -94 6 0 14 13 18 30 4 16 10 32
15 35 4 3 26 -15 48 -40 22 -25 47 -45 55 -45 9 0 28 15 44 34 25 30 35 34 88
38 49 4 65 1 87 -15 30 -22 58 -17 58 10 0 29 -50 116 -82 144 -28 24 -29 26
-13 42 9 9 27 17 40 17 58 0 38 39 -39 76 -75 36 -111 32 -155 -16 -20 -22
-42 -40 -50 -40 -26 0 -93 45 -107 72 -40 78 -3 121 144 167 56 17 121 46 148
64 27 19 100 62 163 96 108 59 114 61 132 45 27 -25 23 -41 -13 -60 -88 -44
-103 -99 -43 -158 35 -35 46 -62 42 -106 -2 -21 3 -26 26 -28 16 -2 39 3 51
12 23 15 24 14 35 -42 6 -31 20 -68 31 -82 18 -23 20 -24 36 -9 9 9 19 32 23
50 10 48 32 42 50 -13 23 -68 42 -84 79 -69 28 12 32 11 69 -30 47 -50 63 -48
94 13 l23 43 8 -39 c17 -77 70 -99 126 -51 33 28 39 27 129 -18 51 -25 70 -15
75 41 3 34 6 37 43 45 22 5 59 10 82 11 62 3 67 13 32 73 -25 44 -36 53 -66
59 -21 4 -50 2 -70 -5 -34 -13 -61 -7 -29 5 10 4 22 17 27 30 7 19 16 24 44
24 60 0 34 41 -37 61 -55 14 -117 4 -159 -26 -18 -14 -45 -25 -59 -25 -67 0
-235 120 -260 185 -16 43 -2 71 79 160 104 113 136 178 136 272 0 65 -3 74
-28 101 -32 34 -85 52 -150 52 -49 0 -177 22 -217 38 -29 11 -32 10 95 40 50
12 121 38 158 57 101 52 143 44 101 -20 -9 -14 -14 -32 -10 -40 7 -20 77 -20
115 0 l28 14 11 -65 c6 -36 16 -72 23 -80 13 -16 65 -19 74 -4 14 23 25 7 25
-38 0 -84 56 -116 128 -72 l33 21 29 -31 c22 -23 37 -30 67 -30 32 -1 41 -6
58 -33 11 -18 37 -41 57 -52 l37 -20 29 34 c34 40 59 39 87 -6 26 -41 49 -41
87 -1 30 33 34 63 13 112 -8 18 -5 19 43 12 50 -6 52 -6 52 18 0 43 -19 80
-62 118 -35 31 -40 39 -29 52 7 8 26 18 42 21 16 4 29 11 29 16 0 17 -54 31
-95 24 -22 -4 -55 -7 -73 -6 -45 1 -90 -24 -98 -54 -13 -53 -72 -17 -140 88
-26 39 -68 95 -93 123 -44 48 -111 159 -111 183 0 6 10 11 22 11 20 0 19 3
-15 38 -60 61 -46 112 31 112 30 0 62 26 62 50 0 7 -7 22 -16 31 -16 17 -15
19 10 29 15 5 31 10 36 10 5 0 21 5 35 12 29 13 33 44 10 74 -8 10 -15 24 -15
30 0 11 114 84 131 84 18 0 8 31 -21 63 -16 19 -30 37 -30 41 0 11 45 5 70 -9
14 -8 33 -14 42 -15 27 0 34 46 13 88 -16 35 -16 37 0 47 57 33 80 53 83 69 5
22 -14 36 -48 36 -31 0 -90 35 -90 54 0 25 25 37 46 21 29 -22 64 -18 122 15
58 34 66 54 25 65 -15 3 -40 18 -57 32 -22 19 -38 24 -64 21 l-35 -4 29 23
c16 13 41 23 56 23 36 0 58 10 58 26 0 20 -74 54 -131 61 -45 5 -53 3 -79 -22
-22 -21 -30 -24 -30 -13 0 25 39 67 76 83 44 18 43 30 -2 45 -70 23 -234 -15
-234 -54 0 -19 -5 -20 -31 -6 -10 6 -19 21 -19 33 0 12 -5 29 -10 37 -7 12
-13 11 -36 -10 -40 -37 -55 -80 -43 -123 9 -33 20 -45 88 -96 34 -25 23 -57
-48 -133 -32 -35 -84 -103 -116 -153 -62 -98 -115 -159 -157 -181 -35 -18
-145 -18 -228 1 -95 22 -96 23 -74 40 16 12 17 17 6 32 -12 18 -26 47 -64 132
-18 41 -18 43 -1 36 190 -81 321 -85 399 -12 27 25 37 46 49 102 28 122 29
134 11 141 -26 10 -79 -5 -110 -31 -25 -20 -31 -34 -37 -86 -9 -81 -24 -93
-104 -85 -49 4 -179 39 -194 52 -2 2 12 30 32 63 20 32 42 82 49 111 11 49 11
54 -9 70 -12 9 -58 24 -104 33 -58 12 -92 25 -116 44 -19 16 -44 36 -56 46
-13 10 -81 29 -162 46 -77 16 -157 36 -179 45 -48 20 -80 20 -96 1z"/>
</g>
</svg>
